<?xml version="1.0" encoding="UTF-8" standalone="no"?>
<!-- Generator: Adobe Illustrator 29.1.0, SVG Export Plug-In . SVG Version: 9.03 Build 55587)  -->

<svg
   version="1.1"
   id="Layer_1"
   x="0px"
   y="0px"
   width="272.15799"
   height="60.054001"
   viewBox="0 0 272.158 60.054002"
   enable-background="new 0 0 275.8 63.196"
   xml:space="preserve"
   sodipodi:docname="logo_white.svg"
   inkscape:version="1.4 (e7c3feb100, 2024-10-09)"
   xmlns:inkscape="http://www.inkscape.org/namespaces/inkscape"
   xmlns:sodipodi="http://sodipodi.sourceforge.net/DTD/sodipodi-0.dtd"
   xmlns="http://www.w3.org/2000/svg"
   xmlns:svg="http://www.w3.org/2000/svg"><defs
   id="defs7" /><sodipodi:namedview
   id="namedview7"
   pagecolor="#ffffff"
   bordercolor="#000000"
   borderopacity="0.25"
   inkscape:showpageshadow="2"
   inkscape:pageopacity="0.0"
   inkscape:pagecheckerboard="false"
   inkscape:deskcolor="#d1d1d1"
   inkscape:zoom="3.4765658"
   inkscape:cx="152.88075"
   inkscape:cy="33.941541"
   inkscape:window-width="1920"
   inkscape:window-height="1011"
   inkscape:window-x="0"
   inkscape:window-y="0"
   inkscape:window-maximized="1"
   inkscape:current-layer="Layer_1" />
<g
   id="g7"
   transform="translate(-1.738,-1.64)"
   style="fill:#ffffff">
	<g
   id="g6"
   style="fill:#ffffff">
		<path
   fill="#f6f6f6"
   d="M 20.955,61.694 C 15.03,61.694 10.346,60.066 6.902,56.81 3.46,53.554 1.738,49.15 1.738,43.598 h 10.009 c 0,2.882 0.813,5.165 2.442,6.846 1.628,1.681 3.883,2.522 6.766,2.522 2.829,0 5.071,-0.827 6.727,-2.482 1.653,-1.654 2.481,-3.924 2.481,-6.807 V 2.44 h 10.01 v 41.237 c 0,5.553 -1.722,9.943 -5.165,13.172 -3.444,3.231 -8.127,4.845 -14.053,4.845 z"
   id="path1"
   style="fill:#ffffff" />
		<path
   fill="#f6f6f6"
   d="m 69.958,61.694 c -5.713,0 -10.183,-1.562 -13.412,-4.684 -3.23,-3.123 -4.844,-7.379 -4.844,-12.772 V 2.44 h 10.089 v 41.718 c 0,2.776 0.692,4.938 2.082,6.486 1.387,1.549 3.415,2.322 6.085,2.322 2.615,0 4.631,-0.773 6.046,-2.322 1.413,-1.547 2.121,-3.709 2.121,-6.486 V 2.44 h 10.089 v 41.798 c 0,5.393 -1.601,9.649 -4.804,12.772 -3.203,3.123 -7.686,4.684 -13.452,4.684 z"
   id="path2"
   style="fill:#ffffff" />
		<path
   fill="#f6f6f6"
   d="M 99.504,60.893 V 2.44 h 17.375 c 3.95,0 7.379,0.761 10.289,2.282 2.909,1.521 5.165,3.644 6.767,6.366 1.602,2.723 2.401,5.925 2.401,9.609 v 21.86 c 0,3.683 -0.8,6.9 -2.401,9.648 -1.602,2.75 -3.857,4.885 -6.767,6.406 -2.91,1.521 -6.339,2.282 -10.289,2.282 z m 10.009,-8.968 h 7.366 c 2.883,0 5.177,-0.841 6.886,-2.522 1.708,-1.682 2.562,-3.964 2.562,-6.846 v -21.86 c 0,-2.829 -0.854,-5.084 -2.562,-6.766 -1.709,-1.682 -4.003,-2.522 -6.886,-2.522 h -7.366 z"
   id="path3"
   style="fill:#ffffff" />
		<path
   fill="#f6f6f6"
   d="m 165.001,61.694 c -3.791,0 -7.074,-0.708 -9.849,-2.122 -2.776,-1.414 -4.925,-3.416 -6.446,-6.005 -1.521,-2.588 -2.281,-5.645 -2.281,-9.168 V 18.935 c 0,-3.523 0.76,-6.579 2.281,-9.168 1.521,-2.588 3.67,-4.59 6.446,-6.005 2.774,-1.414 6.058,-2.122 9.849,-2.122 3.735,0 6.992,0.708 9.769,2.122 2.775,1.415 4.938,3.417 6.486,6.005 1.547,2.59 2.321,5.646 2.321,9.168 h -10.089 c 0,-2.723 -0.734,-4.817 -2.202,-6.286 -1.469,-1.468 -3.562,-2.202 -6.285,-2.202 -2.723,0 -4.832,0.721 -6.325,2.162 -1.495,1.441 -2.242,3.523 -2.242,6.246 v 25.543 c 0,2.723 0.747,4.832 2.242,6.326 1.493,1.495 3.603,2.242 6.325,2.242 2.722,0 4.816,-0.747 6.285,-2.242 1.468,-1.494 2.202,-3.603 2.202,-6.326 v -6.486 h -9.929 v -8.647 h 20.018 v 15.133 c 0,3.523 -0.774,6.58 -2.321,9.168 -1.549,2.59 -3.711,4.592 -6.486,6.005 -2.777,1.415 -6.034,2.123 -9.769,2.123 z"
   id="path4"
   style="fill:#ffffff" />
		<path
   fill="#f6f6f6"
   d="M 193.104,60.893 V 2.44 h 35.072 v 8.808 h -25.223 v 15.214 h 22.42 v 8.488 h -22.42 v 17.135 h 25.223 v 8.808 z"
   id="path5"
   style="fill:#ffffff" />
		<path
   fill="#f6f6f6"
   d="m 255.32,61.694 c -3.791,0 -7.074,-0.721 -9.849,-2.162 -2.776,-1.441 -4.925,-3.469 -6.446,-6.085 -1.521,-2.615 -2.281,-5.685 -2.281,-9.208 V 19.095 c 0,-3.523 0.76,-6.592 2.281,-9.208 1.521,-2.615 3.67,-4.644 6.446,-6.085 2.774,-1.441 6.058,-2.162 9.849,-2.162 3.79,0 7.072,0.72 9.849,2.162 2.775,1.441 4.925,3.471 6.446,6.085 1.521,2.616 2.281,5.686 2.281,9.208 v 25.143 c 0,3.523 -0.76,6.594 -2.281,9.208 -1.521,2.616 -3.671,4.644 -6.446,6.085 -2.777,1.442 -6.059,2.163 -9.849,2.163 z m 0,-8.648 c 2.775,0 4.99,-0.801 6.646,-2.402 1.654,-1.601 2.482,-3.736 2.482,-6.406 V 19.095 c 0,-2.668 -0.814,-4.804 -2.442,-6.406 -1.629,-1.602 -3.856,-2.402 -6.686,-2.402 -2.83,0 -5.059,0.801 -6.686,2.402 -1.629,1.602 -2.442,3.737 -2.442,6.406 v 25.143 c 0,2.67 0.827,4.805 2.482,6.406 1.654,1.601 3.87,2.402 6.646,2.402 z m 0,-16.575 c -1.602,0 -2.883,-0.44 -3.844,-1.321 -0.961,-0.881 -1.441,-2.122 -1.441,-3.724 0,-1.601 0.48,-2.815 1.441,-3.643 0.961,-0.827 2.242,-1.241 3.844,-1.241 1.602,0 2.883,0.414 3.844,1.241 0.961,0.828 1.441,2.042 1.441,3.643 0,1.602 -0.48,2.843 -1.441,3.724 -0.961,0.881 -2.242,1.321 -3.844,1.321 z"
   id="path6"
   style="fill:#ffffff" />
	</g>
</g>
</svg>
